External Loads File
version=1
nRows=78
nColumns=13
Range=5.000000e-03-10 seconds
endheader
time 	forceRightX 	forceRightY 	forceRightZ 	pointRightX 	pointRightY 	pointRightZ 	forceLeftX 	forceLeftY 	forceLeftZ 	pointLeftX 	pointLeftY 	pointLeftZ 		
7.505000 39.498508 27.050138 -0.000000 0.241593 0.507036 -0.151394 31.528596 311.174963 -0.000000 0.264653 0.156403 -0.379098
7.510000 29.912251 27.437571 -0.000000 0.247161 0.507634 -0.151427 22.570288 299.978476 -0.000000 0.259746 0.156191 -0.378986
7.515000 23.111518 26.364526 -0.000000 0.252296 0.508004 -0.151447 33.215565 287.079992 -0.000000 0.255192 0.156049 -0.378890
7.520000 15.594621 27.534469 -0.000000 0.257346 0.508155 -0.151461 24.924097 276.225319 -0.000000 0.251057 0.156077 -0.378745
7.525000 10.634407 28.619929 -0.000000 0.261682 0.508142 -0.151277 32.010598 264.065867 -0.000000 0.247229 0.156305 -0.378723
7.530000 5.098074 31.175138 -0.000000 0.265487 0.507964 -0.151260 25.011306 253.825139 -0.000000 0.243826 0.156555 -0.378616
7.535000 2.092239 34.316827 -0.000000 0.268895 0.507717 -0.151246 31.283410 242.600539 -0.000000 0.240849 0.156851 -0.378535
7.540000 -1.775713 38.323924 -0.000000 0.271882 0.507480 -0.151128 25.464873 233.309408 -0.000000 0.238242 0.157282 -0.378480
7.545000 -2.725728 42.965097 -0.000000 0.274483 0.507140 -0.151015 32.049940 222.940307 -0.000000 0.236008 0.157619 -0.378451
7.550000 -5.117420 47.772323 -0.000000 0.276540 0.506874 -0.150924 26.579141 214.440878 -0.000000 0.234148 0.157978 -0.378375
7.555000 -6.841029 52.620859 -0.000000 0.278179 0.506536 -0.150834 21.761718 205.946924 -0.000000 0.232586 0.158334 -0.378410
7.560000 -7.950889 57.402449 -0.000000 0.279316 0.506306 -0.150784 17.337414 197.398788 -0.000000 0.231359 0.158689 -0.378407
7.565000 -5.029523 62.477211 -0.000000 0.280025 0.506148 -0.150768 23.711228 187.851338 -0.000000 0.230473 0.158944 -0.378431
7.570000 -4.672367 67.155633 -0.000000 0.280337 0.506023 -0.150818 19.862423 179.820281 -0.000000 0.229928 0.159096 -0.378384
7.575000 -2.543900 71.934459 -0.000000 0.280212 0.505904 -0.150814 19.563141 172.095819 -0.000000 0.229669 0.159217 -0.378384
7.580000 -1.083670 76.777819 -0.000000 0.279688 0.505812 -0.150836 16.815425 165.638178 -0.000000 0.229689 0.159268 -0.378401
7.585000 2.209215 81.817865 -0.000000 0.278730 0.505756 -0.150829 17.451171 160.037282 -0.000000 0.229968 0.159227 -0.378419
7.590000 4.922398 87.107772 -0.000000 0.277458 0.505760 -0.150843 16.522955 155.944682 -0.000000 0.230528 0.159159 -0.378431
7.595000 8.357883 92.640132 -0.000000 0.275782 0.505757 -0.150795 16.746957 153.085159 -0.000000 0.231271 0.159049 -0.378474
7.600000 11.857885 98.426149 -0.000000 0.273773 0.505842 -0.150795 17.075403 151.560254 -0.000000 0.232331 0.158876 -0.378456
7.605000 14.647543 104.498213 -0.000000 0.271513 0.505993 -0.150805 16.615917 151.520947 -0.000000 0.233638 0.158586 -0.378475
7.610000 19.356336 110.286368 -0.000000 0.269068 0.506111 -0.150700 19.386052 152.581040 -0.000000 0.235201 0.158350 -0.378487
7.615000 22.108699 116.115385 -0.000000 0.266281 0.506226 -0.150619 20.100556 155.428506 -0.000000 0.237033 0.158071 -0.378550
7.620000 27.120404 120.814090 -0.000000 0.263274 0.506354 -0.150586 24.695720 159.348354 -0.000000 0.239141 0.157715 -0.378522
7.625000 29.684998 124.889244 -0.000000 0.260029 0.506552 -0.150480 27.048775 165.264329 -0.000000 0.241501 0.157341 -0.378569
7.630000 34.443145 126.756560 -0.000000 0.256501 0.506687 -0.150418 33.428662 172.199959 -0.000000 0.244149 0.157043 -0.378620
7.635000 34.132016 127.834195 -0.000000 0.252836 0.506812 -0.150431 33.919156 182.049233 -0.000000 0.247096 0.156768 -0.378676
7.640000 37.946077 125.275528 -0.000000 0.248982 0.506994 -0.150488 41.229573 192.499018 -0.000000 0.250332 0.156516 -0.378718
7.645000 34.862688 122.061297 -0.000000 0.244964 0.507020 -0.150562 38.227712 207.035756 -0.000000 0.253931 0.156361 -0.378791
7.650000 38.235625 114.314076 -0.000000 0.240861 0.506903 -0.150633 46.196886 221.492937 -0.000000 0.257834 0.156355 -0.378888
7.655000 35.375023 106.325630 -0.000000 0.236670 0.506675 -0.150738 41.373698 240.556869 -0.000000 0.262042 0.156428 -0.378989
7.660000 38.513507 94.585951 -0.000000 0.232302 0.506176 -0.150970 48.982680 259.349732 -0.000000 0.266603 0.156683 -0.379033
7.665000 36.798414 83.862618 -0.000000 0.227523 0.505442 -0.151013 41.438713 282.442138 -0.000000 0.271396 0.157150 -0.379195
7.670000 39.987765 70.841417 -0.000000 0.222694 0.504428 -0.151102 48.255969 304.325296 -0.000000 0.276371 0.157866 -0.379297
7.675000 38.624074 61.157591 -0.000000 0.218044 0.503116 -0.151249 32.119691 329.599507 -0.000000 0.281424 0.158904 -0.379413
7.680000 41.716889 50.193403 -0.000000 0.213487 0.501576 -0.151349 36.232805 351.742661 -0.000000 0.286525 0.160223 -0.379509
7.685000 40.617062 44.900831 -0.000000 0.209007 0.499861 -0.151352 6.604941 374.335185 -0.000000 0.291558 0.161756 -0.379557
7.690000 43.828667 38.242138 -0.000000 0.204741 0.497880 -0.151344 9.456665 392.411522 -0.000000 0.296436 0.163506 -0.379605
7.695000 44.199431 37.294105 -0.000000 0.200660 0.495583 -0.151345 -16.359140 406.794214 -0.000000 0.301078 0.165433 -0.379650
7.700000 47.061629 35.875322 -0.000000 0.196837 0.493121 -0.151269 -14.268552 417.225390 -0.000000 0.305464 0.167460 -0.379681
7.705000 47.250345 40.035308 -0.000000 0.193284 0.490768 -0.151146 -40.127934 421.201538 -0.000000 0.309480 0.169500 -0.379715
7.710000 50.025005 42.893011 -0.000000 0.189977 0.488599 -0.151030 -35.905197 422.380488 -0.000000 0.313152 0.171468 -0.379720
7.715000 52.862249 47.159057 -0.000000 0.186919 0.486553 -0.150888 -31.112139 418.846567 -0.000000 0.316488 0.173441 -0.379772
7.720000 55.901735 52.113907 -0.000000 0.183948 0.484683 -0.150727 -25.291496 411.058892 -0.000000 0.319482 0.175249 -0.379776
7.725000 52.791156 63.037572 -0.000000 0.181283 0.483077 -0.150555 -60.987901 395.489987 -0.000000 0.322169 0.177003 -0.379839
7.730000 55.642648 67.917022 -0.000000 0.178677 0.481648 -0.150366 -53.397133 382.260469 -0.000000 0.324626 0.178460 -0.379846
7.735000 56.221047 73.834833 -0.000000 0.175995 0.480395 -0.150114 -58.084843 365.781511 -0.000000 0.326906 0.179920 -0.379886
7.740000 59.322842 76.755451 -0.000000 0.173622 0.479249 -0.150033 -50.000225 350.968290 -0.000000 0.328972 0.181260 -0.379937
7.745000 59.865754 80.525193 -0.000000 0.171359 0.478238 -0.150086 -53.808259 335.253466 -0.000000 0.330999 0.182513 -0.379934
7.750000 63.107528 81.243477 -0.000000 0.169017 0.477273 -0.150097 -46.858939 323.031205 -0.000000 0.332908 0.183735 -0.380003
7.755000 65.205737 82.055240 -0.000000 0.166663 0.476076 -0.150080 -45.741767 312.490574 -0.000000 0.334808 0.185015 -0.380033
7.760000 68.758959 81.222004 -0.000000 0.164190 0.474772 -0.150178 -40.527061 305.522023 -0.000000 0.336668 0.186267 -0.380085
7.765000 72.556173 79.969415 -0.000000 0.161779 0.473611 -0.150224 -35.968866 301.508614 -0.000000 0.338545 0.187582 -0.380147
7.770000 76.522916 78.616279 -0.000000 0.159427 0.471969 -0.150220 -32.150894 300.265633 -0.000000 0.340352 0.188992 -0.380187
7.775000 76.408872 81.536030 -0.000000 0.157134 0.470429 -0.150196 -44.860358 299.537175 -0.000000 0.342212 0.190480 -0.380239
7.780000 80.540286 80.856708 -0.000000 0.155126 0.468630 -0.150221 -42.616127 302.915218 -0.000000 0.344043 0.192085 -0.380277
7.785000 83.729310 81.481708 -0.000000 0.152830 0.466875 -0.149920 -44.331249 307.272096 -0.000000 0.345869 0.193819 -0.380266
7.790000 87.817829 81.470496 -0.000000 0.150391 0.464919 -0.149942 -42.606697 312.990812 -0.000000 0.347599 0.195577 -0.380310
7.795000 88.231312 85.536914 -0.000000 0.148295 0.463024 -0.149963 -54.312924 316.941816 -0.000000 0.349310 0.197358 -0.380325
7.800000 91.777040 86.342552 -0.000000 0.146364 0.461131 -0.149994 -53.371947 322.624841 -0.000000 0.350962 0.199135 -0.380321
7.805000 92.044111 90.433622 -0.000000 0.144419 0.459366 -0.149851 -63.408475 325.764550 -0.000000 0.352544 0.200909 -0.380304
7.810000 94.860406 91.616635 -0.000000 0.142605 0.457614 -0.149697 -62.976634 330.060038 -0.000000 0.354019 0.202613 -0.380307
7.815000 97.355597 92.768587 -0.000000 0.141079 0.455991 -0.149710 -62.678804 333.573598 -0.000000 0.355412 0.204220 -0.380278
7.820000 99.783349 93.586956 -0.000000 0.139632 0.454479 -0.149596 -61.756574 336.519906 -0.000000 0.356750 0.205652 -0.380148
7.825000 96.660248 99.691407 -0.000000 0.138319 0.453064 -0.149583 -79.500029 334.997110 -0.000000 0.357955 0.206997 -0.380087
7.830000 98.538661 100.378356 -0.000000 0.137308 0.451890 -0.149970 -79.485120 336.728645 -0.000000 0.359003 0.208176 -0.380103
7.835000 100.461239 100.698080 -0.000000 0.136387 0.450829 -0.149786 -79.190995 338.101052 -0.000000 0.359989 0.209221 -0.380114
7.840000 102.400578 100.683621 -0.000000 0.135447 0.450016 -0.149824 -78.758283 339.173433 -0.000000 0.360848 0.210099 -0.380134
7.845000 104.116157 100.554406 -0.000000 0.134631 0.449340 -0.149737 -78.850251 339.909272 -0.000000 0.361666 0.210858 -0.380143
7.850000 105.570400 100.312400 -0.000000 0.133834 0.448788 -0.149531 -79.334162 340.435262 -0.000000 0.362357 0.211444 -0.380139
7.855000 106.844980 99.830751 -0.000000 0.133275 0.448340 -0.149483 -79.672770 340.949462 -0.000000 0.363040 0.211942 -0.380141
7.860000 107.841816 99.182430 -0.000000 0.132827 0.447948 -0.149451 -79.984087 341.492687 -0.000000 0.363584 0.212366 -0.380137
7.865000 108.362778 98.568284 -0.000000 0.132507 0.447675 -0.149448 -80.769813 341.984061 -0.000000 0.364090 0.212742 -0.380135
7.870000 108.681018 97.676158 -0.000000 0.132215 0.447475 -0.149462 -80.948883 342.687162 -0.000000 0.364538 0.213019 -0.380118
7.875000 108.373915 96.961156 -0.000000 0.132056 0.447363 -0.149461 -81.939153 343.278081 -0.000000 0.364892 0.213254 -0.380085
7.880000 107.678076 96.156974 -0.000000 0.132041 0.447310 -0.149451 -82.915146 343.938349 -0.000000 0.365209 0.213462 -0.380071
7.885000 106.799999 95.040401 -0.000000 0.132021 0.447311 -0.149488 -83.162346 344.787853 -0.000000 0.365462 0.213600 -0.380061
7.890000 105.473079 93.925029 -0.000000 0.132138 0.447335 -0.149517 -83.703482 345.528430 -0.000000 0.365663 0.213674 -0.380041
